<svg height="512pt" viewBox="0 0 512 512" width="512pt" xmlns="http://www.w3.org/2000/svg"><path d="m432.34375 256c0 97.394531-78.953125 176.34375-176.34375 176.34375s-176.34375-78.949219-176.34375-176.34375c0-97.390625 78.953125-176.34375 176.34375-176.34375s176.34375 78.953125 176.34375 176.34375zm0 0" fill="#db380e"/><path d="m256 79.65625c-97.390625 0-176.34375 78.953125-176.34375 176.34375 0 97.394531 78.953125 176.34375 176.34375 176.34375s176.34375-78.949219 176.34375-176.34375c0-97.390625-78.953125-176.34375-176.34375-176.34375zm0 336.65625c-88.539062 0-160.3125-71.773438-160.3125-160.3125s71.773438-160.3125 160.3125-160.3125 160.3125 71.773438 160.3125 160.3125-71.773438 160.3125-160.3125 160.3125zm0 0" fill="#af2d0b"/><path d="m384.25 256c0 70.832031-57.417969 128.25-128.25 128.25s-128.25-57.417969-128.25-128.25c0-70.828125 57.417969-128.25 128.25-128.25s128.25 57.421875 128.25 128.25zm0 0" fill="#44abe8"/><path d="m256 127.75c-70.832031 0-128.25 57.421875-128.25 128.25 0 70.832031 57.417969 128.25 128.25 128.25s128.25-57.417969 128.25-128.25c0-70.828125-57.417969-128.25-128.25-128.25zm0 240.46875c-61.976562 0-112.21875-50.242188-112.21875-112.21875s50.242188-112.21875 112.21875-112.21875 112.21875 50.242188 112.21875 112.21875-50.242188 112.21875-112.21875 112.21875zm0 0" fill="#249ce3"/><path d="m320.125 256c0 35.417969-28.710938 64.125-64.125 64.125s-64.125-28.707031-64.125-64.125c0-35.414062 28.710938-64.125 64.125-64.125s64.125 28.710938 64.125 64.125zm0 0" fill="#e4e8ed"/><path d="m280.046875 256c0 13.28125-10.765625 24.046875-24.046875 24.046875s-24.046875-10.765625-24.046875-24.046875 10.765625-24.046875 24.046875-24.046875 24.046875 10.765625 24.046875 24.046875zm0 0" fill="#92a2b5"/><path d="m167.328125 256h-15.03125c0-57.179688 46.519531-103.703125 103.703125-103.703125v15.03125c-48.894531 0-88.671875 39.777344-88.671875 88.671875zm0 0" fill="#fff"/><g fill="#e8ab4c"><path d="m272.03125 488.453125c0 8.855469-7.175781 16.03125-16.03125 16.03125s-16.03125-7.175781-16.03125-16.03125c0-8.851563 7.175781-16.03125 16.03125-16.03125s16.03125 7.179687 16.03125 16.03125zm0 0"/><path d="m272.03125 23.546875c0 8.855469-7.175781 16.03125-16.03125 16.03125s-16.03125-7.175781-16.03125-16.03125 7.175781-16.03125 16.03125-16.03125 16.03125 7.175781 16.03125 16.03125zm0 0"/><path d="m39.578125 256c0 8.855469-7.179687 16.03125-16.03125 16.03125-8.855469 0-16.03125-7.175781-16.03125-16.03125 0-8.851562 7.175781-16.03125 16.03125-16.03125 8.851563 0 16.03125 7.179688 16.03125 16.03125zm0 0"/><path d="m504.484375 256c0 8.855469-7.175781 16.03125-16.03125 16.03125-8.851563 0-16.03125-7.175781-16.03125-16.03125 0-8.851562 7.179687-16.03125 16.03125-16.03125 8.855469 0 16.03125 7.179688 16.03125 16.03125zm0 0"/><path d="m440.359375 87.671875c0 8.855469-7.175781 16.03125-16.03125 16.03125-8.851563 0-16.03125-7.175781-16.03125-16.03125 0-8.851563 7.179687-16.03125 16.03125-16.03125 8.855469 0 16.03125 7.179687 16.03125 16.03125zm0 0"/><path d="m103.703125 424.328125c0 8.855469-7.179687 16.03125-16.03125 16.03125-8.855469 0-16.03125-7.175781-16.03125-16.03125 0-8.851563 7.175781-16.03125 16.03125-16.03125 8.851563 0 16.03125 7.179687 16.03125 16.03125zm0 0"/><path d="m103.703125 87.671875c0 8.855469-7.179687 16.03125-16.03125 16.03125-8.855469 0-16.03125-7.175781-16.03125-16.03125 0-8.851563 7.175781-16.03125 16.03125-16.03125 8.851563 0 16.03125 7.179687 16.03125 16.03125zm0 0"/><path d="m440.359375 424.328125c0 8.855469-7.175781 16.03125-16.03125 16.03125-8.851563 0-16.03125-7.175781-16.03125-16.03125 0-8.851563 7.179687-16.03125 16.03125-16.03125 8.855469 0 16.03125 7.179687 16.03125 16.03125zm0 0"/></g><path d="m256 184.359375c-39.503906 0-71.640625 32.140625-71.640625 71.640625 0 39.503906 32.136719 71.640625 71.640625 71.640625s71.640625-32.136719 71.640625-71.640625c0-39.5-32.136719-71.640625-71.640625-71.640625zm0 128.253906c-31.214844 0-56.609375-25.398437-56.609375-56.613281s25.394531-56.609375 56.609375-56.609375 56.609375 25.394531 56.609375 56.609375-25.394531 56.613281-56.609375 56.613281zm0 0"/><path d="m256 224.4375c-17.402344 0-31.5625 14.160156-31.5625 31.5625s14.160156 31.5625 31.5625 31.5625 31.5625-14.160156 31.5625-31.5625-14.160156-31.5625-31.5625-31.5625zm0 48.097656c-9.117188 0-16.53125-7.417968-16.53125-16.535156 0-9.113281 7.414062-16.53125 16.53125-16.53125s16.53125 7.417969 16.53125 16.53125c0 9.117188-7.414062 16.535156-16.53125 16.535156zm0 0"/><path d="m488.453125 232.707031c-10.355469 0-19.164063 6.261719-22.308594 16.28125h-26.453125c-1.820312-45.089843-19.910156-86.199219-48.546875-117.253906l22.726563-22.851563c3.152344 1.570313 6.703125 2.398438 10.457031 2.398438 12.984375 0 23.546875-10.59375 23.546875-23.578125 0-12.980469-10.5625-23.5625-23.546875-23.5625-12.980469 0-23.546875 10.554687-23.546875 23.539063 0 3.757812.890625 7.304687 2.460938 10.457031l-22.972657 22.722656c-31.058593-28.636719-72.167969-46.730469-117.253906-48.550781v-26.453125c10.019531-3.144531 16.28125-11.953125 16.28125-22.308594 0-12.984375-10.4375-23.546875-23.421875-23.546875s-23.734375 10.5625-23.734375 23.546875c0 10.355469 6.824219 19.164063 15.84375 22.308594v26.453125c-44.085937 1.820312-85.695313 19.910156-116.753906 48.546875l-22.597657-22.726563c1.570313-3.152344 2.519532-6.703125 2.519532-10.457031 0-12.984375-10.53125-23.546875-23.511719-23.546875-12.984375 0-23.53125 10.5625-23.53125 23.546875s10.570313 23.546875 23.554687 23.546875c3.753907 0 7.308594-.890625 10.460938-2.460938l22.726562 22.976563c-28.636718 31.054687-46.726562 72.164063-48.542968 117.253906h-26.453125c-3.144531-10.019531-11.953125-16.28125-22.308594-16.28125-12.984375 0-23.546875 10.4375-23.546875 23.417969 0 12.984375 10.5625 23.734375 23.546875 23.734375 10.355469 0 19.164063-6.824219 22.308594-15.84375h26.453125c1.820312 44.085937 19.910156 85.699219 48.546875 116.753906l-22.46875 22.339844.847656.785156c-3.417969-1.9375-7.363281-3.078125-11.5625-3.078125-12.984375 0-23.546875 10.546875-23.546875 23.527344 0 12.984375 10.5625 23.539062 23.546875 23.539062s23.546875-10.566406 23.546875-23.550781c0-4.199219-1.113281-8.148437-3.046875-11.566406l.84375.847656 22.214844-22.46875c31.058593 28.636719 72.667969 46.726563 116.753906 48.546875v26.453125c-9.019531 3.144531-15.78125 11.953125-15.78125 22.308594 0 12.984375 10.6875 23.546875 23.671875 23.546875s23.359375-10.5625 23.359375-23.546875c0-10.355469-6.199219-19.164063-16.21875-22.308594v-26.453125c45.085937-1.820312 86.195313-19.910156 117.25-48.546875l22.851563 22.726563c-1.570313 3.152344-2.398438 6.703125-2.398438 10.457031 0 12.984375 10.59375 23.546875 23.578125 23.546875s23.5625-10.5625 23.5625-23.546875-10.554687-23.542969-23.539063-23.542969c-3.753906 0-7.300781.886719-10.453124 2.457032l-22.722657-22.472657c28.636719-31.058593 46.730469-72.667969 48.546875-116.753906h26.453125c3.144531 9.019531 11.953125 15.78125 22.308594 15.78125 12.984375 0 23.546875-10.5625 23.546875-23.546875 0-12.980469-10.5625-23.542969-23.546875-23.542969zm-64.125-153.550781c4.695313 0 8.515625 3.820312 8.515625 8.515625s-3.820312 8.515625-8.515625 8.515625-8.515625-3.820312-8.515625-8.515625 3.820312-8.515625 8.515625-8.515625zm-336.65625 17.03125c-4.695313 0-8.515625-3.820312-8.515625-8.515625s3.820312-8.515625 8.515625-8.515625 8.515625 3.820312 8.515625 8.515625-3.820312 8.515625-8.515625 8.515625zm-64.125 168.332031c-4.695313 0-8.515625-3.824219-8.515625-8.519531s3.820312-8.515625 8.515625-8.515625 8.515625 3.820313 8.515625 8.515625-3.820312 8.519531-8.515625 8.519531zm64.125 168.328125c-4.695313 0-8.515625-3.824218-8.515625-8.519531s3.820312-8.515625 8.515625-8.515625 8.515625 3.820312 8.515625 8.515625-3.820312 8.519531-8.515625 8.519531zm336.65625-17.035156c4.695313 0 8.515625 3.820312 8.515625 8.515625s-3.820312 8.519531-8.515625 8.519531-8.515625-3.824218-8.515625-8.519531 3.820312-8.515625 8.515625-8.515625zm-54.6875-284.328125-23.527344 23.398437c-22.289062-19.96875-51.035156-32.691406-83.097656-34.4375v-33.097656c41.078125 1.800782 78.300781 18.210938 106.625 44.136719zm-122.15625-107.9375c0-4.695313 3.820313-8.515625 8.515625-8.515625s8.515625 3.820312 8.515625 8.515625-3.820313 8.515625-8.515625 8.515625-8.515625-3.820312-8.515625-8.515625zm.5 63.800781v33.097656c-31.0625 1.746094-60.433594 14.46875-82.722656 34.4375l-23.527344-23.398437c28.320313-25.925781 66.171875-42.335937 106.25-44.136719zm-116.5 55.015625 23.398437 23.523438c-19.96875 22.289062-32.695312 51.039062-34.4375 83.101562h-33.101562c1.804688-41.082031 18.214844-78.304687 44.140625-106.625zm10.375 238.15625 23.484375-23.355469c5.472656 4.898438 11.160156 9.378907 17.410156 13.367188 19.664063 12.546875 42.1875 19.730469 65.230469 21.007812v33.117188c-40.078125-1.800781-77.804687-18.214844-106.125-44.136719zm122.65625 107.933594c0 4.695313-3.820313 8.519531-8.515625 8.519531s-8.515625-3.824218-8.515625-8.519531c0-4.691406 3.820313-8.515625 8.515625-8.515625s8.515625 3.824219 8.515625 8.515625zm-8.515625-111.707031c-23.070312 0-45.496094-6.53125-64.851562-18.878906-18.847657-12.03125-33.976563-28.992188-43.753907-49.050782l-13.507812 6.582032c5.53125 11.355468 12.59375 21.820312 20.941406 31.144531l-23.347656 23.597656c-25.921875-28.320313-42.332031-66.046875-44.136719-106.125h33.121094c.648437 11.023437 2.820312 23.375 6.53125 34.660156l14.277344-4.816406c-3.984376-12.136719-6.007813-24.894531-6.007813-37.796875 0-66.574219 54.160156-120.765625 120.734375-120.765625s120.734375 54.144531 120.734375 120.71875-54.160156 120.730469-120.734375 120.730469zm7.015625 47.910156v-33.101562c32.0625-1.742188 60.933594-14.46875 83.222656-34.4375l23.277344 23.398437c-28.324219 25.925781-65.421875 42.339844-106.5 44.140625zm117.5-54.515625-23.398437-23.273437c19.96875-22.292969 32.695312-51.789063 34.4375-82.851563h33.097656c-1.800782 40.078125-18.210938 77.804687-44.136719 106.125zm11.039063-121.152344c-1.742188-32.0625-14.46875-60.9375-34.4375-83.226562l23.398437-23.273438c25.925781 28.320313 42.335937 65.417969 44.136719 106.5zm96.898437 15.53125c-4.695313 0-8.515625-3.824219-8.515625-8.519531s3.820312-8.515625 8.515625-8.515625 8.515625 3.820313 8.515625 8.515625-3.820312 8.519531-8.515625 8.519531zm0 0"/></svg>